# xmcd CD database file
#
# Track frame offsets:
#	150
#	16898
#	37103
#	56374
#	81890
#	105972
#	130031
#	149511
#	167914
#	191591
#	231380
#	256498
#
# Disc length: 3759 seconds
#
# Revision: 0
# Processed by: cddbd v1.5.2PL0 Copyright (c) Steve Scherf et al.
# Submitted via: CDex 1.70beta2
#
DISCID=a00ead0c
DTITLE=Cecilia Noel - Delivery
DYEAR=2000
DGENRE=Salsa
TTITLE0=9069
TTITLE1=Ax
TTITLE2=Bolero de Salon
TTITLE3=Dip it
TTITLE4=Don't tell nobody
TTITLE5=La Culebra
TTITLE6=Mambo
TTITLE7=Monkey
TTITLE8=Opertereo
TTITLE9=Pronto Salsa
TTITLE10=Rain
TTITLE11=Tu Codema
EXTD=YEAR: 2000
EXTT0=
EXTT1=
EXTT2=
EXTT3=
EXTT4=
EXTT5=
EXTT6=
EXTT7=
EXTT8=
EXTT9=
EXTT10=
EXTT11=
PLAYORDER=
